<?xml version="1.0" encoding="UTF-8" standalone="no"?>
<!-- Created with Inkscape (http://www.inkscape.org/) -->

<svg
   width="210mm"
   height="297mm"
   viewBox="0 0 210 297"
   version="1.1"
   id="svg5"
   inkscape:version="1.1 (c4e8f9e, 2021-05-24)"
   sodipodi:docname="spritesheet.inkspace.svg"
   xmlns:inkscape="http://www.inkscape.org/namespaces/inkscape"
   xmlns:sodipodi="http://sodipodi.sourceforge.net/DTD/sodipodi-0.dtd"
   xmlns="http://www.w3.org/2000/svg"
   xmlns:svg="http://www.w3.org/2000/svg">
  <sodipodi:namedview
     id="namedview7"
     pagecolor="#ffffff"
     bordercolor="#666666"
     borderopacity="1.0"
     inkscape:pageshadow="2"
     inkscape:pageopacity="0.0"
     inkscape:pagecheckerboard="0"
     inkscape:document-units="mm"
     showgrid="false"
     inkscape:zoom="3.8556117"
     inkscape:cx="37.088797"
     inkscape:cy="-37.737203"
     inkscape:window-width="1616"
     inkscape:window-height="1003"
     inkscape:window-x="0"
     inkscape:window-y="25"
     inkscape:window-maximized="0"
     inkscape:current-layer="layer4" />
  <defs
     id="defs2" />
  <g
     inkscape:groupmode="layer"
     id="layer3"
     inkscape:label="Paint splat">
    <path
       style="fill:none;stroke:#000000;stroke-width:0.0753491px;stroke-linecap:butt;stroke-linejoin:miter;stroke-opacity:1"
       d="m -11.32181,0.72262623 c 0,0 0,2.74846547 -4.357695,1.49202687 -4.882377,-1.40772367 -3.890796,8.0098109 -0.389079,7.303062 3.501718,-0.7067495 5.447118,-4.8687085 5.758381,-1.57055 0.3112643,3.2981579 -4.04643,5.9680959 -4.04643,5.9680959 0,0 -2.173199,3.312744 2.023214,2.591409 2.307716,-0.39668 2.957007,-4.711654 2.957007,-4.711654 1.9530206,-0.626364 0.4668978,4.004908 0.4668978,4.004908 0.3462971,1.633955 1.8675831,-0.628221 1.8675831,-0.628221 0.497489,-2.039436 0.02316,-3.480634 1.6341348,-3.219633 1.9543636,1.053119 -0.5172521,1.240452 -0.6225278,5.968097 -0.06965,2.510203 3.2654504,1.457057 2.8791899,-0.628221 -0.041108,-2.839367 0.1936299,-4.06843 2.80137448,-4.083435 5.32491532,1.809041 0.43833634,3.369294 4.82459042,6.360736 4.0029079,1.479512 6.9690933,-2.564516 4.5133254,-9.1092 -0.7141821,-2.4082557 3.5423329,0.536257 5.8361949,2.905521 1.417734,1.092131 4.198697,-0.888482 1.556322,-2.120245 -3.552349,-1.051645 -5.444997,-1.7769196 -6.303093,-3.5337422 0.65843,-2.0857871 3.855813,1.2730345 5.991827,2.3558272 2.879193,0.942331 7.816455,-3.2865031 1.322871,-7.2245356 -2.943354,-1.4795357 -5.605533,2.1506022 -6.769988,-1.6490808 -0.6989753,-4.6196473 4.225761,-5.2060162 7.236885,-6.4392595 0.418211,-1.3420183 -0.198549,-1.8136694 -1.011606,-2.1202459 -1.739143,0.4755881 -3.227426,2.499493 -4.357697,2.0417162 0.389839,-0.7898995 1.258324,-1.1933771 0.700346,-2.7484623 -0.458275,-1.7246834 -2.133122,0.1960952 -1.711953,-0.70675 0.573501,-3.9583061 -2.4290879,-3.9971891 -3.268268,-1.8061341 -1.1256476,3.726653 -1.6625375,2.4031297 -2.4122955,2.9055185 -2.4768274,-2.082483 3.0295167,-5.0201035 -1.4006862,-11.4650255 -1.978017,-1.748439 -7.8142348,0.633759 -6.7699903,3.612269 1.0876593,3.775973 -0.746772,4.111665 -2.0232142,5.104294 -3.8135417,-0.287559 -5.0505632,-2.177625 -6.3030948,-4.319018 -3.072087,-2.302453 -1.478501,1.334969 -1.478501,1.334969 3.0226194,1.696813 5.2914839,4.3975451 5.2914839,4.3975451 -1.9381555,-0.7554088 -4.1160439,-0.2220894 -2.1010285,1.6490781 -4.1705374,-2.8510442 -6.0696464,-0.2355821 -2.5679294,0.8638044 1.6075776,0.2183407 1.381325,1.0535485 1.167241,1.8846619 -1.917806,1.7086746 -2.39298,-0.028961 -4.124247,-0.6282204 -1.33722,-0.2093671 -2.161767,0.7776596 -0.622526,1.570551 1.189385,0.096434 2.891545,0.2954526 4.279876,2.1987724 -5.097835,0.00198 -2.859515,2.4812901 -0.466895,2.19877073 z"
       id="paint_splat"
       sodipodi:nodetypes="cssscsccccccccccccccccccccccccccccccccccc" />
  </g>
  <g
     inkscape:groupmode="layer"
     id="layer4"
     inkscape:label="Paint projectile">
    <path
       style="fill:none;stroke:#000000;stroke-width:0.264583px;stroke-linecap:butt;stroke-linejoin:miter;stroke-opacity:1"
       d="m 0.06862292,3.3625231 -0.96072089,-4.4604898 c -0.18299443,-1.4410813 2.03581327,-1.5097042 1.92144177,0 z"
       id="paint_projectile"
       sodipodi:nodetypes="cccc" />
  </g>
</svg>
